<svg width="1466" height="487" viewBox="0 0 1466 487" fill="none" xmlns="http://www.w3.org/2000/svg">
<rect width="1466" height="487" fill="white"/>
<path d="M134.6 307V194.944H155.096L216.248 278.608L209.696 292.048V194.944H230.864V307H212.384L149.72 223L155.936 212.752V307H134.6ZM245.926 307L288.934 194.944H313.63L354.622 307H331.102L294.478 202.672L304.558 201.832L267.934 307H245.926ZM268.606 279.616L273.982 262.144H326.23L328.078 279.616H268.606Z" fill="black"/>
<path d="M502.52 307L545.528 194.944H570.224L611.216 307H587.696L551.072 202.672L561.152 201.832L524.528 307H502.52ZM525.2 279.616L530.576 262.144H582.824L584.672 279.616H525.2ZM626.295 307V194.944H649.143V288.52H700.215V307H626.295ZM717.842 307V194.944H740.69V307H717.842ZM765.913 307V194.944H841.009V213.256H788.761V241.648H834.121V260.128H788.761V288.688H841.009V307H765.913ZM878.618 264.16V307H866.522V194.944H906.338C918.882 194.944 928.458 197.912 935.066 203.848C941.786 209.784 945.146 218.352 945.146 229.552C945.146 240.752 941.786 249.32 935.066 255.256C928.458 261.192 918.882 264.16 906.338 264.16H878.618ZM878.618 252.568H904.826C911.098 252.568 916.082 251.896 919.778 250.552C923.586 249.208 926.442 247.416 928.346 245.176C930.25 242.824 931.482 240.304 932.042 237.616C932.714 234.928 933.05 232.24 933.05 229.552C933.05 226.864 932.714 224.176 932.042 221.488C931.482 218.8 930.25 216.336 928.346 214.096C926.442 211.744 923.586 209.896 919.778 208.552C916.082 207.208 911.098 206.536 904.826 206.536H878.618V252.568ZM972.913 307V194.944H985.009V307H972.913ZM1006.04 307L1050.73 194.944H1062.82L1107.34 307H1094.41L1055.6 206.2L1058.12 205.864L1019.14 307H1006.04ZM1025.7 272.056L1030.9 260.464H1085.84L1086.68 272.056H1025.7ZM1128.27 307V194.944H1142.05L1211.94 293.56L1208.91 298.264V194.944H1221.01V307H1207.4L1134.83 204.688L1140.37 199.48V307H1128.27ZM1298.91 308.68C1287.82 308.68 1278.52 306.552 1271.02 302.296C1263.63 297.928 1258.03 291.488 1254.22 282.976C1250.52 274.464 1248.68 263.824 1248.68 251.056C1248.68 232.016 1252.88 217.68 1261.28 208.048C1269.79 198.304 1282.33 193.432 1298.91 193.432C1310.11 193.432 1319.4 195.616 1326.8 199.984C1334.3 204.24 1339.9 210.624 1343.6 219.136C1347.4 227.648 1349.31 238.288 1349.31 251.056C1349.31 270.096 1345.05 284.488 1336.54 294.232C1328.14 303.864 1315.6 308.68 1298.91 308.68ZM1298.91 297.256C1307.76 297.256 1314.98 295.632 1320.58 292.384C1326.18 289.136 1330.27 284.096 1332.84 277.264C1335.53 270.432 1336.88 261.696 1336.88 251.056C1336.88 240.416 1335.53 231.736 1332.84 225.016C1330.27 218.184 1326.18 213.144 1320.58 209.896C1314.98 206.536 1307.76 204.856 1298.91 204.856C1290.17 204.856 1283 206.536 1277.4 209.896C1271.8 213.144 1267.66 218.184 1264.97 225.016C1262.4 231.736 1261.11 240.416 1261.11 251.056C1261.11 261.696 1262.4 270.432 1264.97 277.264C1267.66 284.096 1271.8 289.136 1277.4 292.384C1283 295.632 1290.17 297.256 1298.91 297.256Z" fill="black"/>
<rect x="390" y="181" width="26" height="145" fill="#3C3C3C"/>
<rect x="441" y="181" width="26" height="145" fill="#3C3C3C"/>
<rect x="341" y="179" width="177" height="2" fill="#CA0808"/>
<line x1="365.5" y1="181" x2="365.5" y2="370" stroke="#858585"/>
<line x1="491.5" y1="181" x2="491.5" y2="370" stroke="#858585"/>
<line x1="366" y1="369.5" x2="492" y2="369.5" stroke="#858585"/>
<line x1="406.5" y1="326" x2="406.5" y2="370" stroke="#858585"/>
<line x1="450.5" y1="326" x2="450.5" y2="370" stroke="#858585"/>
<rect x="430" y="173" width="92" height="6" fill="black"/>
<rect x="338" y="173" width="92" height="6" fill="black"/>
</svg>
